/* XPM */
static char * flex12_xpm[] = {
"22 22 2 1",
".	c #FFFFFF",
"+	c None",
"..........++..........",
"..........++..........",
"..........++..........",
"..........++..........",
"..........++..........",
"..........++..........",
"..........++++++++++++",
"..........++++++++++++",
"..........++..........",
"..........++..........",
"..........++..........",
"..........++..........",
"..........++..........",
"..........++..........",
"..........++++++++++++",
"..........++++++++++++",
"..........++..........",
"..........++..........",
"..........++..........",
"..........++..........",
"..........++..........",
"..........++.........."};
