/* XPM */
static char * flex23_xpm[] = {
"22 22 2 1",
".	c #FFFFFF",
"+	c None",
"..............++......",
"..............++......",
"..............++......",
"..............++......",
"..............++......",
"..............++......",
"..............++++++++",
"..............++++++++",
"..............++......",
"..............++......",
"..............++......",
"..............++......",
"..............++......",
"..............++......",
"..............++++++++",
"..............++++++++",
"..............++......",
"..............++......",
"..............++......",
"..............++......",
"..............++......",
"..............++......"};
