/* XPM */
static char * tabs_xpm[] = {
"22 22 2 1",
" 	c None",
".	c #515f61",
"......................",
".                    .",
". ...... ..... ..... .",
". ...... .   . .   . .",
". ...... .   . .   . .",
". .................. .",
". .................. .",
". .................. .",
". .................. .",
". .................. .",
". .................. .",
". .................. .",
". .................. .",
". .................. .",
". .................. .",
". .................. .",
". .................. .",
". .................. .",
". .................. .",
". .................. .",
".                    .",
"......................"};
